<svg id="img_noimage" xmlns="http://www.w3.org/2000/svg" xmlns:xlink="http://www.w3.org/1999/xlink" width="512" height="512" viewBox="0 0 512 512">
  <defs>
    <clipPath id="clip-path">
      <rect id="사각형_14259" data-name="사각형 14259" width="268.334" height="220.748" fill="none"/>
    </clipPath>
  </defs>
  <rect id="사각형_43857" data-name="사각형 43857" width="512" height="512" fill="#0a0e1f"/>
  <g id="logo_tari_00" transform="translate(120 142)" opacity="0.05">
    <g id="그룹_11779" data-name="그룹 11779" transform="translate(0 4.2)">
      <g id="그룹_11777" data-name="그룹 11777" clip-path="url(#clip-path)">
        <path id="패스_16078" data-name="패스 16078" d="M263.068,126.129,250.63,113.564a16.157,16.157,0,0,0-3.635-2.937V63.342L232.315,48.5,208.73,50.591v4.816A18.9,18.9,0,0,0,199.884,52l0-.213h-3.323c-.77,0-1.575.033-2.407.094l-43.563,3.85V81.227L140.345,64.2l-10.493-10.6a5.621,5.621,0,0,0,1.788.3c.176,0,.353-.008.533-.023a5.654,5.654,0,0,0,3.923-2.063,5.9,5.9,0,0,0,.714-1.1,5.958,5.958,0,0,0,.893.965,5.613,5.613,0,0,0,3.677,1.363c.177,0,.356-.007.536-.023a5.643,5.643,0,0,0,3.927-2.06,5.9,5.9,0,0,0,.723-1.124,5.989,5.989,0,0,0,.9.978,5.608,5.608,0,0,0,3.688,1.365q.266,0,.536-.024a5.657,5.657,0,0,0,3.919-2.057,5.913,5.913,0,0,0,.709-1.091,5.92,5.92,0,0,0,.884.95,5.606,5.606,0,0,0,3.678,1.363c.179,0,.36-.008.541-.024a5.647,5.647,0,0,0,3.922-2.06,5.918,5.918,0,0,0,.713-1.1,5.891,5.891,0,0,0,.889.958,5.6,5.6,0,0,0,3.678,1.367c.179,0,.357-.008.539-.023a5.642,5.642,0,0,0,3.928-2.063,5.869,5.869,0,0,0,.723-1.125,5.9,5.9,0,0,0,.9.981A5.6,5.6,0,0,0,180.4,49.58c.177,0,.356-.007.537-.023a5.647,5.647,0,0,0,3.93-2.063,5.9,5.9,0,0,0,.7-1.079,6,6,0,0,0,.877.94,5.614,5.614,0,0,0,3.689,1.365c.176,0,.355-.008.534-.024a5.648,5.648,0,0,0,3.92-2.059,5.828,5.828,0,0,0,.718-1.113,5.907,5.907,0,0,0,.9.97,5.6,5.6,0,0,0,3.674,1.363c.179,0,.357-.008.539-.024a5.638,5.638,0,0,0,3.93-2.061,5.766,5.766,0,0,0,1.324-4.263,5.894,5.894,0,0,0-.572-2.064l3.63-.322v7.141l41.876-3.7L235.637,27.436l16.4-16.568L215.445,14.1V6.963l-10.121.894a5.819,5.819,0,0,0,.346-2.532,5.754,5.754,0,0,0-2.041-3.964,5.75,5.75,0,0,0-8.137.719,5.933,5.933,0,0,0-.719,1.116,5.878,5.878,0,0,0-.9-.968,5.749,5.749,0,0,0-8.143.715,5.957,5.957,0,0,0-.705,1.084,5.872,5.872,0,0,0-.882-.943,5.743,5.743,0,0,0-8.137.719,5.848,5.848,0,0,0-.725,1.129,5.86,5.86,0,0,0-.905-.983,5.746,5.746,0,0,0-8.141.718,5.875,5.875,0,0,0-.716,1.106,5.894,5.894,0,0,0-.893-.964,5.75,5.75,0,0,0-8.139.718,5.912,5.912,0,0,0-.709,1.091,5.878,5.878,0,0,0-.881-.946,5.748,5.748,0,0,0-8.143.715,6.031,6.031,0,0,0-.724,1.125,5.894,5.894,0,0,0-.9-.98,5.747,5.747,0,0,0-8.143.722,5.947,5.947,0,0,0-.712,1.1,5.985,5.985,0,0,0-.892-.961,5.748,5.748,0,0,0-8.143.718,5.954,5.954,0,0,0-.708,1.088,5.9,5.9,0,0,0-.882-.947,5.748,5.748,0,0,0-8.143.718,5.928,5.928,0,0,0-.716,1.107,5.956,5.956,0,0,0-.894-.964,5.747,5.747,0,0,0-8.141.722,5.953,5.953,0,0,0-.721,1.122,5.792,5.792,0,0,0-.9-.981,5.747,5.747,0,0,0-8.143.722,5.947,5.947,0,0,0-.706,1.088,5.93,5.93,0,0,0-.884-.951,5.749,5.749,0,0,0-8.143.723,5.89,5.89,0,0,0-.712,1.1,5.943,5.943,0,0,0-.893-.962,5.745,5.745,0,0,0-8.139.719,5.9,5.9,0,0,0-.713,1.1,5.827,5.827,0,0,0-.889-.957,5.749,5.749,0,0,0-8.143.715,6.034,6.034,0,0,0-.717,1.111,5.883,5.883,0,0,0-.9-.968,5.743,5.743,0,0,0-8.137.719,5.92,5.92,0,0,0-.72,1.116,5.837,5.837,0,0,0-.9-.97,5.748,5.748,0,0,0-8.145.721,5.86,5.86,0,0,0-.551,6.689l-10.548.932V54.2l9.982-.882a5.9,5.9,0,0,0-.208,2.137A5.747,5.747,0,0,0,49.97,59.42a5.6,5.6,0,0,0,3.68,1.367c.177,0,.356-.008.537-.023a5.638,5.638,0,0,0,3.926-2.06,5.938,5.938,0,0,0,.718-1.113,5.886,5.886,0,0,0,.9.969,5.609,5.609,0,0,0,3.688,1.364c.176,0,.355-.007.533-.023a5.651,5.651,0,0,0,3.923-2.063,5.8,5.8,0,0,0,.714-1.106,5.908,5.908,0,0,0,.894.965,5.6,5.6,0,0,0,3.676,1.365c.179,0,.359-.008.539-.024a5.638,5.638,0,0,0,3.927-2.057,5.953,5.953,0,0,0,.713-1.1,5.943,5.943,0,0,0,.89.955A5.6,5.6,0,0,0,82.9,58.2c.177,0,.356-.008.537-.024a5.655,5.655,0,0,0,3.93-2.06,5.953,5.953,0,0,0,.713-1.1,5.877,5.877,0,0,0,.892.962,5.611,5.611,0,0,0,3.682,1.363c.175,0,.352-.008.53-.022a5.645,5.645,0,0,0,3.93-2.063,5.965,5.965,0,0,0,.705-1.086,5.992,5.992,0,0,0,.885.95,5.6,5.6,0,0,0,3.676,1.361c.179,0,.356-.007.537-.023a5.645,5.645,0,0,0,3.928-2.063,5.877,5.877,0,0,0,.721-1.121,5.964,5.964,0,0,0,.905.981,5.609,5.609,0,0,0,3.682,1.363c.175,0,.352-.008.53-.023a5.642,5.642,0,0,0,3.926-2.059,5.861,5.861,0,0,0,.716-1.107,5.925,5.925,0,0,0,.892.961,5.634,5.634,0,0,0,2.487,1.225l-8.68,15.961-10.3-10.523L38.16,65.673V82.148a5.336,5.336,0,0,0-3.72-1.09L5.132,83.648A5.686,5.686,0,0,0,0,89.3v24.446A5.547,5.547,0,0,0,1.759,117.8a5.455,5.455,0,0,0,4.162,1.42l3.31-.292,17.717,5.917a5.441,5.441,0,0,0,1.718.278,5.578,5.578,0,0,0,4.173-1.9,5.666,5.666,0,0,0,.937-6.077l-.171-.376,1.629-.144a5.687,5.687,0,0,0,5.126-5.648V91.6l12.48,12.612,5.3-.467v19.769l-9.711.859V135.7L38.126,125.283l-21.3,1.884V180.51L31.5,195.346l14.886-1.315,10.983-12.069,10.982,10.126,16.064-1.42v-3.617c3.617,2.076,8.116,2.9,13.374,2.435l11.493-1.016a25.372,25.372,0,0,0,11.742-3.754l2.4,2.5,21.335-1.884v-12.46l12.326,11.369,33.211-2.935v23.358a6.267,6.267,0,0,0,1.993,4.59,6.085,6.085,0,0,0,4.687,1.591l2.552-.225-.6,1.429a6.256,6.256,0,0,0,1.438,7.029,6.082,6.082,0,0,0,4.191,1.669,6.308,6.308,0,0,0,2.851-.691L231.4,207.8l4.711-.417a6.447,6.447,0,0,0,5.819-6.406V176.744l5.29-.47c13.419-1.185,21.113-9.651,21.113-23.225V141.434c0-6.38-1.821-11.673-5.266-15.306m-62.33,16.723-9.993.883V125.644l-.126.011v-9.868l10.119,9.333Z" transform="translate(0 0)" fill="#fff"/>
        <path id="패스_16079" data-name="패스 16079" d="M225.894,38.334l-4.381.387-10.9.964-3.677.324v9.617l-3.568-3.6c-2.776-2.95-6.821-4.53-11.959-4.53v0h0c-.831,0-1.7.039-2.595.118l-36.339,3.212-3.678.326v34.5l-12.64-21.014-3.619-6.015L119.941,39.9l-3.353,6.17-8.93,16.42-.021,0L95.295,49.879l-4.381.388-50.873,4.5-3.677.324V74.28L48.955,87l4.381-.387,3.014-.267v26.583l-6.034.535-3.678.324v20.29l-2.34-2.158v-4.089L31.706,115.112l-4.379.387-8.622.763-3.677.324v48.829l12.591,12.723L32,177.752l6.092-.539,1.557-.137,1.058-1.163,11.308-12.426,11.057,10.2,1.307,1.2,1.761-.155,6.092-.539,3.678-.326v-7.844l.024.022c.042.042.082.085.125.126s.082.086.125.126.082.084.124.125.082.086.125.128.083.084.125.126.082.084.125.125.082.085.124.126.083.084.125.126l.126.126c.042.042.081.084.124.125s.082.085.125.126.082.086.125.126.082.086.125.126l.124.126c.042.041.082.084.125.126s.082.084.125.125.082.086.125.128.082.084.124.125c2.745,2.75,6.664,4.219,11.6,4.219.822,0,1.685-.039,2.569-.117l11.5-1.017c5.211-.461,9.366-2.136,12.369-4.9l3.366,3.508,4.381-.388,8.621-.761,3.677-.326V152.562l1.057-.092,14.5,13.37,1.307,1.2,1.761-.156,10.678-.945,4.381-.387L210.165,162l1.367-.121,4.381-.387,25.862-2.287c11.638-1.029,18.047-8.078,18.047-19.845V127.744c0-5.6-1.512-9.984-4.332-12.959l-12.467-12.6a13.28,13.28,0,0,0-4.538-3.172V51.057ZM87.9,98.824V83.56l8.719-.771ZM198.942,132.27l-2.07.183-14.639,1.293V115.64l-.125.012v-.138l-.125.012v-.137l-.125.011v-.137l-.125.011v-.137l-.125.011v-.137l-.125.011v-.137l-.124.011v-.137l-.125.012v-.137l-.125.011v-.137l-.125.011v-.137l-.124.011v-.137l-.125.011v-.137l-.125.012V114l-.125.011v-.137l-.125.011v-.137h-.02V95.583l2.775-.246,15.824,14.593Z" transform="translate(5.154 13.69)" fill="#231f20"/>
        <path id="패스_16080" data-name="패스 16080" d="M137.136,106.408l5-4.769V77.572l-10.573,8.7Z" transform="translate(45.125 27.703)" fill="#231f20"/>
        <path id="패스_16081" data-name="패스 16081" d="M145.4,128.041v32.636a1.157,1.157,0,0,0,1.279,1.178l8.823-.78a1.188,1.188,0,0,1,1.171,1.71l-3.035,7.236a1.194,1.194,0,0,0,1.663,1.565l24.6-12.568a1.374,1.374,0,0,1,.494-.143l5.412-.479a1.432,1.432,0,0,0,1.279-1.4V124.355a1.157,1.157,0,0,0-1.279-1.178l-39.132,3.459a1.432,1.432,0,0,0-1.279,1.4" transform="translate(49.871 43.988)" fill="#fff"/>
        <path id="패스_16082" data-name="패스 16082" d="M155.1,173.8a2.748,2.748,0,0,1-1.9-.756,2.864,2.864,0,0,1-.639-3.226l2.779-6.626-8.114.718a2.771,2.771,0,0,1-2.133-.721,2.834,2.834,0,0,1-.9-2.08V128.469a3.048,3.048,0,0,1,2.75-3.026l39.132-3.461a2.775,2.775,0,0,1,2.134.722,2.836,2.836,0,0,1,.9,2.079v32.636a3.047,3.047,0,0,1-2.752,3.027l-5.359.474L156.44,173.469a2.952,2.952,0,0,1-1.336.327m.927-13.926a2.74,2.74,0,0,1,2.245,1.147,2.9,2.9,0,0,1,.293,2.832l-2.605,6.213,23.627-12.069a2.931,2.931,0,0,1,1.078-.314l5.223-.461V125.269l-38.467,3.4v31.949l8.351-.738c.085-.008.171-.011.255-.011" transform="translate(49.46 43.559)" fill="#221714"/>
        <path id="패스_16083" data-name="패스 16083" d="M174.046,136.35a4.732,4.732,0,0,0-5.227-4.819,5.857,5.857,0,0,0-5.227,5.743,4.732,4.732,0,0,0-5.227-4.819,5.857,5.857,0,0,0-5.227,5.743,5.175,5.175,0,0,0,.114,1.083c1.127,5.605,10.34,11.948,10.34,11.948s9.214-7.973,10.341-13.776a5.576,5.576,0,0,0,.113-1.1" transform="translate(52.525 46.966)" fill="#ff57ad"/>
        <path id="패스_16084" data-name="패스 16084" d="M34.629,64V88.443a1.074,1.074,0,0,1-.958,1.053l-6.61.584a1.055,1.055,0,0,0-.877,1.436l2.274,5.019a1.043,1.043,0,0,1-1.245,1.392L8.783,91.771a.916.916,0,0,0-.369-.042l-4.056.358a.866.866,0,0,1-.958-.882V66.758a1.072,1.072,0,0,1,.958-1.052l29.313-2.592a.867.867,0,0,1,.958.883" transform="translate(1.166 22.538)" fill="#fff"/>
        <path id="패스_16085" data-name="패스 16085" d="M27.809,99.516a2.1,2.1,0,0,1-.667-.109L8.772,93.272l-4,.354a2.093,2.093,0,0,1-1.6-.541,2.126,2.126,0,0,1-.67-1.558V67.079a2.282,2.282,0,0,1,2.063-2.268l29.311-2.592a2.089,2.089,0,0,1,1.6.54,2.128,2.128,0,0,1,.671,1.559V88.765a2.286,2.286,0,0,1-2.061,2.269l-6.371.563,2.153,4.75a2.273,2.273,0,0,1-2.057,3.169m-19-8.691a2.075,2.075,0,0,1,.662.107L27.48,96.948l-2.086-4.6a2.225,2.225,0,0,1,.115-2.023,2.263,2.263,0,0,1,1.755-1.136l6.464-.573V64.684L4.917,67.231V91.16l3.7-.327c.064-.005.128-.008.191-.008" transform="translate(0.857 22.217)" fill="#221714"/>
        <path id="패스_16086" data-name="패스 16086" d="M9.2,74.366a4.386,4.386,0,0,1,3.915-4.3,3.546,3.546,0,0,1,3.916,3.61,4.385,4.385,0,0,1,3.915-4.3,3.545,3.545,0,0,1,3.915,3.61,4.118,4.118,0,0,1-.085.827c-.843,4.347-7.745,10.32-7.745,10.32s-6.9-4.753-7.746-8.95a3.9,3.9,0,0,1-.085-.812" transform="translate(3.154 24.769)" fill="#ff57ad"/>
        <path id="패스_16087" data-name="패스 16087" d="M64.8,62.9v40.392l-10.9.964V63.862L33.915,65.629V54.612l50.873-4.5V61.132Z" transform="translate(11.633 17.897)" fill="#ed559f"/>
        <path id="패스_16088" data-name="패스 16088" d="M101.325,45.475l31.5,52.369L120.22,98.959l-4.178-6.976-29.433,2.6L82.393,102.3,69.82,103.415Zm8.43,36.049-8.43-14.016L92.894,83.015Z" transform="translate(23.948 16.24)" fill="#ed559f"/>
        <path id="패스_16089" data-name="패스 16089" d="M153.969,43.765Q168.5,42.481,168.5,57.17v1.836q0,14.688-14.534,15.972l-1.817.162,19.985,18.428L156.729,94.93,136.743,76.5l-8.212.726v20.2l-10.9.964V46.978ZM157.6,58.133q0-3.67-3.633-3.351l-25.438,2.249v9.18l25.438-2.249q3.632-.322,3.633-3.993Z" transform="translate(40.346 15.593)" fill="#ed559f"/>
        <path id="패스_16090" data-name="패스 16090" d="M171.824,93.016l-10.9.964V42.571l10.9-.964Z" transform="translate(55.195 14.859)" fill="#ed559f"/>
        <path id="패스_16091" data-name="패스 16091" d="M49.637,122.672V96.885l8.622-.763v40.656l-6.093.537L38.144,124.385,24.119,139.8l-6.092.537V99.679l8.621-.763V124.7l11.5-12.634Z" transform="translate(6.183 34.328)" fill="#ed559f"/>
        <path id="패스_16092" data-name="패스 16092" d="M52.263,122.512V110.9q0-14.519,14.367-15.79l11.5-1.016q14.367-1.27,14.367,13.251v11.614q0,14.521-14.367,15.79l-11.5,1.017q-14.367,1.27-14.367-13.25m8.621-12.377v11.616q0,5.808,5.747,5.3l11.5-1.017q5.745-.507,5.747-6.316V108.1q0-5.808-5.747-5.3l-11.5,1.016q-5.747.509-5.747,6.316" transform="translate(17.926 33.566)" fill="#ed559f"/>
        <path id="패스_16093" data-name="패스 16093" d="M115.236,90.9q11.493-1.016,11.493,10.6v1.452q0,11.616-11.493,12.632l-1.437.128,15.8,14.573-12.185,1.078-15.8-14.574-6.495.574v15.972L86.5,134.1V93.443Zm2.873,11.362q0-2.9-2.873-2.65L95.12,101.393v7.259l20.117-1.779a2.819,2.819,0,0,0,2.873-3.157Z" transform="translate(29.668 32.435)" fill="#ed559f"/>
        <path id="패스_16094" data-name="패스 16094" d="M129.356,121.14l31.61-2.794v8.711l-40.231,3.557V89.958l8.621-.763Z" transform="translate(41.411 31.854)" fill="#ed559f"/>
        <path id="패스_16095" data-name="패스 16095" d="M195.2,98.355v11.614q0,14.521-14.369,15.79l-25.862,2.287V87.391L180.833,85.1Q195.2,83.834,195.2,98.355m-8.621,12.377V99.116q0-5.808-5.748-5.3l-17.241,1.524v23.231l17.241-1.524q5.747-.507,5.748-6.316" transform="translate(53.154 30.357)" fill="#ed559f"/>
        <path id="패스_16096" data-name="패스 16096" d="M64.8,62.9v40.392l-10.9.964V63.862L33.915,65.629V54.612l50.873-4.5V61.132Z" transform="translate(11.633 17.897)" fill="#ed559f"/>
        <path id="패스_16097" data-name="패스 16097" d="M101.325,45.475l31.5,52.369L120.22,98.959l-4.178-6.976-29.433,2.6L82.393,102.3,69.82,103.415Zm8.43,36.049-8.43-14.016L92.894,83.015Z" transform="translate(23.948 16.24)" fill="#ed559f"/>
        <path id="패스_16098" data-name="패스 16098" d="M153.969,43.765Q168.5,42.481,168.5,57.17v1.836q0,14.688-14.534,15.972l-1.817.162,19.985,18.428L156.729,94.93,136.743,76.5l-8.212.726v20.2l-10.9.964V46.978ZM157.6,58.133q0-3.67-3.633-3.351l-25.438,2.249v9.18l25.438-2.249q3.632-.322,3.633-3.993Z" transform="translate(40.346 15.593)" fill="#ed559f"/>
        <path id="패스_16099" data-name="패스 16099" d="M171.824,93.016l-10.9.964V42.571l10.9-.964Z" transform="translate(55.195 14.859)" fill="#ed559f"/>
        <path id="패스_16100" data-name="패스 16100" d="M49.637,122.672V96.885l8.622-.763v40.656l-6.093.537L38.144,124.385,24.119,139.8l-6.092.537V99.679l8.621-.763V124.7l11.5-12.634Z" transform="translate(6.183 34.328)" fill="#ed559f"/>
        <path id="패스_16101" data-name="패스 16101" d="M52.263,122.512V110.9q0-14.519,14.367-15.79l11.5-1.016q14.367-1.27,14.367,13.251v11.614q0,14.521-14.367,15.79l-11.5,1.017q-14.367,1.27-14.367-13.25m8.621-12.377v11.616q0,5.808,5.747,5.3l11.5-1.017q5.745-.507,5.747-6.316V108.1q0-5.808-5.747-5.3l-11.5,1.016q-5.747.509-5.747,6.316" transform="translate(17.926 33.566)" fill="#ed559f"/>
        <path id="패스_16102" data-name="패스 16102" d="M115.236,90.9q11.493-1.016,11.493,10.6v1.452q0,11.616-11.493,12.632l-1.437.128,15.8,14.573-12.185,1.078-15.8-14.574-6.495.574v15.972L86.5,134.1V93.443Zm2.873,11.362q0-2.9-2.873-2.65L95.12,101.393v7.259l20.117-1.779a2.819,2.819,0,0,0,2.873-3.157Z" transform="translate(29.668 32.435)" fill="#ed559f"/>
        <path id="패스_16103" data-name="패스 16103" d="M129.356,121.14l31.61-2.794v8.711l-40.231,3.557V89.958l8.621-.763Z" transform="translate(41.411 31.854)" fill="#ed559f"/>
        <path id="패스_16104" data-name="패스 16104" d="M195.2,98.355v11.614q0,14.521-14.369,15.79l-25.862,2.287V87.391L180.833,85.1Q195.2,83.834,195.2,98.355m-8.621,12.377V99.116q0-5.808-5.748-5.3l-17.241,1.524v23.231l17.241-1.524q5.747-.507,5.748-6.316" transform="translate(53.154 30.357)" fill="#ed559f"/>
        <path id="패스_16105" data-name="패스 16105" d="M64.8,62.9v40.392l-10.9.964V63.862L33.915,65.629V54.612l50.873-4.5V61.132Z" transform="translate(11.633 17.897)" fill="#ff57ad"/>
        <path id="패스_16106" data-name="패스 16106" d="M101.325,45.475l31.5,52.369L120.22,98.959l-4.178-6.976-29.433,2.6L82.393,102.3,69.82,103.415Zm8.43,36.049-8.43-14.016L92.894,83.015Z" transform="translate(23.948 16.24)" fill="#ff57ad"/>
        <path id="패스_16107" data-name="패스 16107" d="M153.969,43.765Q168.5,42.481,168.5,57.17v1.836q0,14.688-14.534,15.972l-1.817.162,19.985,18.428L156.729,94.93,136.743,76.5l-8.212.726v20.2l-10.9.964V46.978ZM157.6,58.133q0-3.67-3.633-3.351l-25.438,2.249v9.18l25.438-2.249q3.632-.322,3.633-3.993Z" transform="translate(40.346 15.593)" fill="#ff57ad"/>
        <path id="패스_16108" data-name="패스 16108" d="M171.824,93.016l-10.9.964V42.571l10.9-.964Z" transform="translate(55.195 14.859)" fill="#ff57ad"/>
        <path id="패스_16109" data-name="패스 16109" d="M49.637,122.672V96.885l8.622-.763v40.656l-6.093.537L38.144,124.385,24.119,139.8l-6.092.537V99.679l8.621-.763V124.7l11.5-12.634Z" transform="translate(6.183 34.328)" fill="#ffd531"/>
        <path id="패스_16110" data-name="패스 16110" d="M52.263,122.512V110.9q0-14.519,14.367-15.79l11.5-1.016q14.367-1.27,14.367,13.251v11.614q0,14.521-14.367,15.79l-11.5,1.017q-14.367,1.27-14.367-13.25m8.621-12.377v11.616q0,5.808,5.747,5.3l11.5-1.017q5.745-.507,5.747-6.316V108.1q0-5.808-5.747-5.3l-11.5,1.016q-5.747.509-5.747,6.316" transform="translate(17.926 33.566)" fill="#ffd531"/>
        <path id="패스_16111" data-name="패스 16111" d="M115.236,90.9q11.493-1.016,11.493,10.6v1.452q0,11.616-11.493,12.632l-1.437.128,15.8,14.573-12.185,1.078-15.8-14.574-6.495.574v15.972L86.5,134.1V93.443Zm2.873,11.362q0-2.9-2.873-2.65L95.12,101.393v7.259l20.117-1.779a2.819,2.819,0,0,0,2.873-3.157Z" transform="translate(29.668 32.435)" fill="#ffd531"/>
        <path id="패스_16112" data-name="패스 16112" d="M129.356,121.14l31.61-2.794v8.711l-40.231,3.557V89.958l8.621-.763Z" transform="translate(41.411 31.854)" fill="#ffd531"/>
        <path id="패스_16113" data-name="패스 16113" d="M195.2,98.355v11.614q0,14.521-14.369,15.79l-25.862,2.287V87.391L180.833,85.1Q195.2,83.834,195.2,98.355m-8.621,12.377V99.116q0-5.808-5.748-5.3l-17.241,1.524v23.231l17.241-1.524q5.747-.507,5.748-6.316" transform="translate(53.154 30.357)" fill="#ffd531"/>
        <path id="패스_16114" data-name="패스 16114" d="M198.139,8.154,34.261,22.642l-3.347.3V47.694l3.347-.3L198.139,32.909l3.345-.3V7.858Z" transform="translate(10.603 2.806)" fill="#ff57ad"/>
        <path id="패스_16115" data-name="패스 16115" d="M57.991,19.641,53.784,38.006l-5.933.525L45.711,29.54l-2.164,9.371-5.935.525L33.407,21.815l4.084-.362L40.579,34.4l3.089-13.419-.024-.071,4.134-.366-.024.076,3.063,12.875L53.906,20Z" transform="translate(11.458 7.014)" fill="#231815"/>
        <path id="패스_16116" data-name="패스 16116" d="M57.512,23.415v2.963l7.587-.67V29.72l-7.587.672v2.987l7.587-.672v4.016l-9.095.8-2.481.22V19.727l3.989-.352V19.4l7.587-.672v4.016Z" transform="translate(18.358 6.688)" fill="#231815"/>
        <path id="패스_16117" data-name="패스 16117" d="M74.02,31.758v4.014l-10.067.89V18.645l3.987-.353v14Z" transform="translate(21.935 6.533)" fill="#231815"/>
        <path id="패스_16118" data-name="패스 16118" d="M81.261,35.241a6.583,6.583,0,0,1-.815.023q-.4-.012-.79-.052a6.031,6.031,0,0,1-.767-.129q-.377-.09-.741-.2c-.227-.094-.454-.193-.681-.295s-.455-.217-.684-.343a4.159,4.159,0,0,1-.612-.4q-.294-.232-.561-.478a4.959,4.959,0,0,1-.979-1.087,8.4,8.4,0,0,1-.759-1.3,10.245,10.245,0,0,1-.465-1.477,8.291,8.291,0,0,1-.146-1.6V26.034a9.209,9.209,0,0,1,.146-1.629q.1-.4.208-.79t.257-.769q.171-.358.355-.717a7.157,7.157,0,0,1,.4-.7,4.4,4.4,0,0,1,.453-.677c.171-.212.346-.414.526-.609a10.1,10.1,0,0,1,1.174-1.084,10.576,10.576,0,0,1,1.364-.855q.365-.177.741-.334a6.561,6.561,0,0,1,.767-.263,7.682,7.682,0,0,1,3.21-.284,5.778,5.778,0,0,1,.766.128c.251.06.5.128.743.2a6.3,6.3,0,0,1,1.338.616,6.724,6.724,0,0,1,2.164,1.988,6.27,6.27,0,0,1,.729,1.281,7.386,7.386,0,0,1,.462,1.477l-3.891,1.152a3.719,3.719,0,0,0-.219-.74,5.94,5.94,0,0,0-.388-.651,1.806,1.806,0,0,0-.488-.543A1.327,1.327,0,0,0,83.814,22c-.1-.065-.2-.133-.317-.2a5.772,5.772,0,0,0-.681-.331,3.775,3.775,0,0,0-.752-.153,3.4,3.4,0,0,0-1.606.141,4.449,4.449,0,0,0-.753.288,7.143,7.143,0,0,0-.681.452c-.114.092-.219.178-.317.261a3.5,3.5,0,0,0-.291.282,4.435,4.435,0,0,0-.486.631,3.154,3.154,0,0,0-.365.718q-.073.2-.133.391c-.042.126-.077.256-.11.389a4.825,4.825,0,0,0-.073.814v1.861a4.458,4.458,0,0,0,.073.825c.034.129.068.251.11.37s.085.233.133.343a3.038,3.038,0,0,0,.365.653c.081.107.163.206.243.3l.243.271.291.22c.1.073.2.145.317.216a2.475,2.475,0,0,0,.681.307c.129.039.255.072.377.1s.247.057.376.077a4.493,4.493,0,0,0,1.606-.143c.129-.043.255-.091.376-.144s.247-.106.376-.167a3.07,3.07,0,0,0,.681-.427,4.264,4.264,0,0,0,.584-.541c.1-.106.187-.212.269-.318a2.544,2.544,0,0,0,.219-.338,1.865,1.865,0,0,0,.205-.335c.058-.119.118-.247.183-.384a2.827,2.827,0,0,0,.122-.365c.032-.126.064-.255.1-.388l3.891.438a7.056,7.056,0,0,1-.462,1.559,7.914,7.914,0,0,1-.729,1.436c-.146.224-.3.442-.462.651s-.333.414-.51.609-.365.387-.56.575a4.408,4.408,0,0,1-.631.509c-.212.166-.431.319-.657.463s-.455.281-.681.414c-.243.119-.492.232-.743.335a6.813,6.813,0,0,1-.766.265c-.275.073-.544.137-.8.193a6.936,6.936,0,0,1-.8.119" transform="translate(25.128 6.167)" fill="#231815"/>
        <path id="패스_16119" data-name="패스 16119" d="M95.771,16a8.279,8.279,0,0,1,3.478.4,8.182,8.182,0,0,1,2.844,1.669,7.964,7.964,0,0,1,1.92,2.683,8.334,8.334,0,0,1,.706,3.439,9.29,9.29,0,0,1-.706,3.587,10.137,10.137,0,0,1-1.92,3.021,10.442,10.442,0,0,1-2.844,2.174,9.173,9.173,0,0,1-3.478,1.016,8.243,8.243,0,0,1-3.477-.4,8.157,8.157,0,0,1-2.846-1.671,7.944,7.944,0,0,1-1.92-2.682,8.372,8.372,0,0,1-.705-3.463,9.2,9.2,0,0,1,.705-3.562,10.141,10.141,0,0,1,1.92-3.022,10.4,10.4,0,0,1,2.846-2.173A9.148,9.148,0,0,1,95.771,16m0,13.978a5.17,5.17,0,0,0,1.934-.561A5.477,5.477,0,0,0,99.285,28.2a5.756,5.756,0,0,0,1.058-1.688,5.15,5.15,0,0,0,.389-1.972,4.567,4.567,0,0,0-1.448-3.381,4.334,4.334,0,0,0-1.579-.931,4.684,4.684,0,0,0-1.934-.22,5.183,5.183,0,0,0-1.933.562,5.485,5.485,0,0,0-1.581,1.211A5.77,5.77,0,0,0,91.2,23.461a5.06,5.06,0,0,0-.389,1.96,4.656,4.656,0,0,0,.389,1.9,4.5,4.5,0,0,0,1.058,1.5,4.313,4.313,0,0,0,1.581.932,4.675,4.675,0,0,0,1.933.219" transform="translate(29.78 5.7)" fill="#231815"/>
        <path id="패스_16120" data-name="패스 16120" d="M119.59,14.079V32.1l-3.989.353V21.972L112.733,32.7l-3.891.345-2.894-10.442V33.3l-3.989.353V15.637l6.1-.514,2.724,9.747,2.748-10.23Z" transform="translate(34.971 5.028)" fill="#231815"/>
        <path id="패스_16121" data-name="패스 16121" d="M120.887,17.87v2.963l7.587-.67v4.013l-7.587.672v2.987l7.587-.672v4.016l-9.095.8-2.48.22V14.183l3.989-.352v.024l7.587-.672V17.2Z" transform="translate(40.095 4.708)" fill="#231815"/>
        <path id="패스_16122" data-name="패스 16122" d="M143.485,15.871l-4.256.376V30.274l-3.987.353V16.6l-4.256.376V12.961l12.5-1.106Z" transform="translate(44.927 4.234)" fill="#231815"/>
        <path id="패스_16123" data-name="패스 16123" d="M151.052,11.16a8.276,8.276,0,0,1,3.478.4,8.183,8.183,0,0,1,2.844,1.669,7.965,7.965,0,0,1,1.92,2.683A8.313,8.313,0,0,1,160,19.354a9.266,9.266,0,0,1-.706,3.587,10.138,10.138,0,0,1-1.92,3.021,10.443,10.443,0,0,1-2.844,2.174,9.167,9.167,0,0,1-3.478,1.016,8.243,8.243,0,0,1-3.477-.4,8.157,8.157,0,0,1-2.846-1.671,7.963,7.963,0,0,1-1.921-2.682,8.4,8.4,0,0,1-.705-3.463,9.224,9.224,0,0,1,.705-3.562,10.169,10.169,0,0,1,1.921-3.022,10.4,10.4,0,0,1,2.846-2.173,9.149,9.149,0,0,1,3.477-1.018m0,13.978a5.17,5.17,0,0,0,1.934-.56,5.476,5.476,0,0,0,1.579-1.212,5.755,5.755,0,0,0,1.058-1.688,5.151,5.151,0,0,0,.389-1.972,4.567,4.567,0,0,0-1.448-3.381,4.333,4.333,0,0,0-1.579-.931,4.662,4.662,0,0,0-1.934-.218,5.156,5.156,0,0,0-1.933.56,5.484,5.484,0,0,0-1.581,1.211,5.8,5.8,0,0,0-1.058,1.677,5.059,5.059,0,0,0-.39,1.96,4.655,4.655,0,0,0,.39,1.9,4.517,4.517,0,0,0,1.058,1.5,4.312,4.312,0,0,0,1.581.932,4.675,4.675,0,0,0,1.933.219" transform="translate(48.74 3.972)" fill="#231815"/>
        <path id="패스_16124" data-name="패스 16124" d="M166.448,13.087l-5.18.459-3.347.3V38.6l3.347-.3.858-.076,14.6-14.753L188.973,11.1Z" transform="translate(54.166 3.963)" fill="#ff57ad"/>
        <path id="패스_16125" data-name="패스 16125" d="M161.052,34.968,187.9,32.594h0L175.651,20.216Z" transform="translate(55.24 7.22)" fill="#ff57ad"/>
        <path id="패스_16126" data-name="패스 16126" d="M38.186,14.683a2.377,2.377,0,0,1,.553-1.786,2.417,2.417,0,0,1,3.413-.3,2.476,2.476,0,0,1,.3,3.448,2.417,2.417,0,0,1-3.413.3,2.371,2.371,0,0,1-.851-1.662" transform="translate(13.094 4.295)" fill="#ff57ad"/>
        <path id="패스_16127" data-name="패스 16127" d="M45.45,14.048A2.377,2.377,0,0,1,46,12.262a2.415,2.415,0,0,1,3.413-.3,2.476,2.476,0,0,1,.3,3.448,2.415,2.415,0,0,1-3.413.3,2.371,2.371,0,0,1-.851-1.662" transform="translate(15.585 4.068)" fill="#ffd531"/>
        <path id="패스_16128" data-name="패스 16128" d="M52.712,13.412a2.377,2.377,0,0,1,.553-1.786,2.415,2.415,0,0,1,3.413-.3,2.475,2.475,0,0,1,.3,3.447,2.417,2.417,0,0,1-3.413.3,2.371,2.371,0,0,1-.851-1.662" transform="translate(18.076 3.841)" fill="#ff57ad"/>
        <path id="패스_16129" data-name="패스 16129" d="M59.968,12.777a2.377,2.377,0,0,1,.553-1.786,2.415,2.415,0,0,1,3.413-.3,2.476,2.476,0,0,1,.3,3.448,2.419,2.419,0,0,1-3.413.3,2.371,2.371,0,0,1-.851-1.662" transform="translate(20.565 3.614)" fill="#ffd531"/>
        <path id="패스_16130" data-name="패스 16130" d="M67.226,12.142a2.37,2.37,0,0,1,.552-1.786,2.415,2.415,0,0,1,3.413-.3,2.473,2.473,0,0,1,.3,3.448,2.415,2.415,0,0,1-3.413.3,2.375,2.375,0,0,1-.85-1.662" transform="translate(23.054 3.387)" fill="#ff57ad"/>
        <path id="패스_16131" data-name="패스 16131" d="M74.472,11.509a2.377,2.377,0,0,1,.553-1.786,2.415,2.415,0,0,1,3.413-.3,2.475,2.475,0,0,1,.3,3.447,2.417,2.417,0,0,1-3.413.3,2.371,2.371,0,0,1-.851-1.662" transform="translate(25.54 3.161)" fill="#ffd531"/>
        <path id="패스_16132" data-name="패스 16132" d="M81.745,10.872A2.377,2.377,0,0,1,82.3,9.086a2.416,2.416,0,0,1,3.413-.3,2.475,2.475,0,0,1,.3,3.447,2.417,2.417,0,0,1-3.413.3,2.371,2.371,0,0,1-.851-1.662" transform="translate(28.034 2.934)" fill="#ff57ad"/>
        <path id="패스_16133" data-name="패스 16133" d="M89,10.236a2.377,2.377,0,0,1,.553-1.786,2.415,2.415,0,0,1,3.413-.3,2.476,2.476,0,0,1,.3,3.448,2.415,2.415,0,0,1-3.413.3A2.371,2.371,0,0,1,89,10.236" transform="translate(30.524 2.707)" fill="#ffd531"/>
        <path id="패스_16134" data-name="패스 16134" d="M96.251,9.6A2.377,2.377,0,0,1,96.8,7.817a2.415,2.415,0,0,1,3.413-.3,2.476,2.476,0,0,1,.3,3.448,2.415,2.415,0,0,1-3.413.3A2.371,2.371,0,0,1,96.251,9.6" transform="translate(33.01 2.481)" fill="#ff57ad"/>
        <path id="패스_16135" data-name="패스 16135" d="M103.511,8.967a2.377,2.377,0,0,1,.553-1.786,2.415,2.415,0,0,1,3.413-.3,2.365,2.365,0,0,1,.851,1.661,2.369,2.369,0,0,1-.553,1.786,2.417,2.417,0,0,1-3.413.3,2.371,2.371,0,0,1-.851-1.662" transform="translate(35.5 2.253)" fill="#ffd531"/>
        <path id="패스_16136" data-name="패스 16136" d="M110.783,8.331a2.376,2.376,0,0,1,.553-1.786,2.415,2.415,0,0,1,3.413-.3,2.365,2.365,0,0,1,.851,1.661,2.371,2.371,0,0,1-.553,1.786,2.417,2.417,0,0,1-3.413.3,2.371,2.371,0,0,1-.851-1.662" transform="translate(37.994 2.026)" fill="#ff57ad"/>
        <path id="패스_16137" data-name="패스 16137" d="M118.03,7.7a2.377,2.377,0,0,1,.553-1.786,2.416,2.416,0,0,1,3.413-.3,2.368,2.368,0,0,1,.851,1.661,2.374,2.374,0,0,1-.553,1.787,2.415,2.415,0,0,1-3.413.3A2.371,2.371,0,0,1,118.03,7.7" transform="translate(40.48 1.8)" fill="#ffd531"/>
        <path id="패스_16138" data-name="패스 16138" d="M125.288,7.062a2.377,2.377,0,0,1,.553-1.786,2.415,2.415,0,0,1,3.413-.3,2.365,2.365,0,0,1,.851,1.661,2.376,2.376,0,0,1-.553,1.787,2.419,2.419,0,0,1-3.413.3,2.371,2.371,0,0,1-.852-1.662" transform="translate(42.969 1.573)" fill="#ff57ad"/>
        <path id="패스_16139" data-name="패스 16139" d="M132.564,6.426a2.377,2.377,0,0,1,.553-1.786,2.415,2.415,0,0,1,3.413-.3A2.368,2.368,0,0,1,137.381,6a2.375,2.375,0,0,1-.553,1.787,2.419,2.419,0,0,1-3.413.3,2.371,2.371,0,0,1-.852-1.662" transform="translate(45.465 1.346)" fill="#ffd531"/>
        <path id="패스_16140" data-name="패스 16140" d="M139.8,5.792a2.376,2.376,0,0,1,.553-1.786,2.415,2.415,0,0,1,3.413-.3,2.365,2.365,0,0,1,.851,1.661,2.375,2.375,0,0,1-.553,1.787,2.416,2.416,0,0,1-3.413.3,2.371,2.371,0,0,1-.851-1.662" transform="translate(47.948 1.12)" fill="#ff57ad"/>
        <path id="패스_16141" data-name="패스 16141" d="M147.07,5.157a2.376,2.376,0,0,1,.553-1.786,2.415,2.415,0,0,1,3.412-.3,2.368,2.368,0,0,1,.852,1.661,2.37,2.37,0,0,1-.553,1.786,2.417,2.417,0,0,1-3.413.3,2.371,2.371,0,0,1-.851-1.662" transform="translate(50.44 0.893)" fill="#ffd531"/>
        <path id="패스_16142" data-name="패스 16142" d="M38.186,41.345a2.377,2.377,0,0,1,.553-1.786,2.415,2.415,0,0,1,3.413-.3,2.475,2.475,0,0,1,.3,3.447,2.417,2.417,0,0,1-3.413.3,2.371,2.371,0,0,1-.851-1.662" transform="translate(13.094 13.817)" fill="#ed549d"/>
        <path id="패스_16143" data-name="패스 16143" d="M45.45,40.709A2.377,2.377,0,0,1,46,38.923a2.415,2.415,0,0,1,3.413-.3,2.476,2.476,0,0,1,.3,3.448,2.415,2.415,0,0,1-3.413.3,2.371,2.371,0,0,1-.851-1.662" transform="translate(15.585 13.589)" fill="#ffd531"/>
        <path id="패스_16144" data-name="패스 16144" d="M52.712,40.074a2.377,2.377,0,0,1,.553-1.786,2.415,2.415,0,0,1,3.413-.3,2.475,2.475,0,0,1,.3,3.447,2.417,2.417,0,0,1-3.413.3,2.371,2.371,0,0,1-.851-1.662" transform="translate(18.076 13.363)" fill="#ed549d"/>
        <path id="패스_16145" data-name="패스 16145" d="M59.968,39.439a2.377,2.377,0,0,1,.553-1.786,2.416,2.416,0,0,1,3.413-.3,2.476,2.476,0,0,1,.3,3.448,2.419,2.419,0,0,1-3.413.3,2.371,2.371,0,0,1-.851-1.662" transform="translate(20.565 13.136)" fill="#ffd531"/>
        <path id="패스_16146" data-name="패스 16146" d="M67.226,38.8a2.37,2.37,0,0,1,.552-1.786,2.415,2.415,0,0,1,3.413-.3,2.473,2.473,0,0,1,.3,3.448,2.415,2.415,0,0,1-3.413.3,2.375,2.375,0,0,1-.85-1.662" transform="translate(23.054 12.909)" fill="#ed549d"/>
        <path id="패스_16147" data-name="패스 16147" d="M74.472,38.17a2.377,2.377,0,0,1,.553-1.786,2.415,2.415,0,0,1,3.413-.3,2.475,2.475,0,0,1,.3,3.447,2.417,2.417,0,0,1-3.413.3,2.371,2.371,0,0,1-.851-1.662" transform="translate(25.54 12.683)" fill="#ffd531"/>
        <path id="패스_16148" data-name="패스 16148" d="M81.745,37.534a2.377,2.377,0,0,1,.553-1.786,2.415,2.415,0,0,1,3.413-.3,2.475,2.475,0,0,1,.3,3.447,2.417,2.417,0,0,1-3.413.3,2.371,2.371,0,0,1-.851-1.662" transform="translate(28.034 12.456)" fill="#ed549d"/>
        <path id="패스_16149" data-name="패스 16149" d="M89,36.9a2.377,2.377,0,0,1,.553-1.786,2.416,2.416,0,0,1,3.413-.3,2.476,2.476,0,0,1,.3,3.448,2.416,2.416,0,0,1-3.413.3A2.371,2.371,0,0,1,89,36.9" transform="translate(30.524 12.228)" fill="#ffd531"/>
        <path id="패스_16150" data-name="패스 16150" d="M96.251,36.265a2.377,2.377,0,0,1,.553-1.786,2.415,2.415,0,0,1,3.413-.3,2.476,2.476,0,0,1,.3,3.448,2.415,2.415,0,0,1-3.413.3,2.371,2.371,0,0,1-.851-1.662" transform="translate(33.01 12.002)" fill="#ed549d"/>
        <path id="패스_16151" data-name="패스 16151" d="M103.511,35.629a2.377,2.377,0,0,1,.553-1.786,2.415,2.415,0,0,1,3.413-.3,2.475,2.475,0,0,1,.3,3.447,2.417,2.417,0,0,1-3.413.3,2.371,2.371,0,0,1-.851-1.662" transform="translate(35.5 11.775)" fill="#ffd531"/>
        <path id="패스_16152" data-name="패스 16152" d="M110.783,34.993a2.376,2.376,0,0,1,.553-1.786,2.415,2.415,0,0,1,3.413-.3,2.475,2.475,0,0,1,.3,3.447,2.417,2.417,0,0,1-3.413.3,2.371,2.371,0,0,1-.851-1.662" transform="translate(37.994 11.548)" fill="#ed549d"/>
        <path id="패스_16153" data-name="패스 16153" d="M118.03,34.359a2.377,2.377,0,0,1,.553-1.786,2.415,2.415,0,0,1,3.413-.3,2.476,2.476,0,0,1,.3,3.448,2.415,2.415,0,0,1-3.413.3,2.371,2.371,0,0,1-.851-1.662" transform="translate(40.48 11.322)" fill="#ffd531"/>
        <path id="패스_16154" data-name="패스 16154" d="M125.288,33.724a2.377,2.377,0,0,1,.553-1.786,2.415,2.415,0,0,1,3.413-.3,2.476,2.476,0,0,1,.3,3.448,2.419,2.419,0,0,1-3.413.3,2.371,2.371,0,0,1-.852-1.662" transform="translate(42.969 11.095)" fill="#ed549d"/>
        <path id="패스_16155" data-name="패스 16155" d="M132.564,33.087a2.377,2.377,0,0,1,.553-1.786,2.415,2.415,0,0,1,3.413-.3,2.476,2.476,0,0,1,.3,3.448,2.419,2.419,0,0,1-3.413.3,2.371,2.371,0,0,1-.852-1.662" transform="translate(45.465 10.867)" fill="#ffd531"/>
        <path id="패스_16156" data-name="패스 16156" d="M139.8,32.454a2.376,2.376,0,0,1,.553-1.786,2.415,2.415,0,0,1,3.413-.3,2.476,2.476,0,0,1,.3,3.448,2.416,2.416,0,0,1-3.413.3,2.371,2.371,0,0,1-.851-1.662" transform="translate(47.948 10.641)" fill="#ed549d"/>
        <path id="패스_16157" data-name="패스 16157" d="M147.07,31.818a2.376,2.376,0,0,1,.553-1.786,2.415,2.415,0,0,1,3.412-.3,2.475,2.475,0,0,1,.3,3.447,2.417,2.417,0,0,1-3.413.3,2.371,2.371,0,0,1-.851-1.662" transform="translate(50.44 10.414)" fill="#ffd531"/>
      </g>
    </g>
    <rect id="사각형_14260" data-name="사각형 14260" width="272" height="229" fill="none"/>
  </g>
</svg>
