<svg xmlns="http://www.w3.org/2000/svg" width="24" height="24" viewBox="0 0 24 24">
    <defs>
        <clipPath id="0at7ivczia">
            <path data-name="사각형 13702" style="fill:none" d="M0 0h24v24H0z"/>
        </clipPath>
    </defs>
    <path data-name="사각형 13699" style="fill:none" d="M0 0h24v20.571H0z"/>
    <g data-name="그룹 11642">
        <g data-name="그룹 11643">
            <g data-name="그룹 11642" style="clip-path:url(#0at7ivczia)">
                <path data-name="패스 70733" d="M12 0a12 12 0 1 0 12 12A12 12 0 0 0 12 0" style="fill:#efefef"/>
                <path data-name="패스 15769" d="M10.732 17.484a1.5 1.5 0 0 1-1.061-2.561l7.168-7.167a1.5 1.5 0 0 1 2.121 2.122l-7.167 7.167a1.5 1.5 0 0 1-1.061.439" style="fill:#afafaf"/>
                <path data-name="패스 15770" d="M10.732 17.484a1.5 1.5 0 0 1-1.061-.439L5.04 12.413a1.5 1.5 0 1 1 2.121-2.121l4.632 4.631a1.5 1.5 0 0 1-1.061 2.561" style="fill:#afafaf"/>
                <g data-name="그룹 63659" style="clip-path:url(#0at7ivczia)">
                    <path data-name="패스 70735" d="M12 .686A11.314 11.314 0 1 1 .686 12 11.315 11.315 0 0 1 12 .686M12 0a12 12 0 1 0 12 12A12 12 0 0 0 12 0" style="fill:#afafaf"/>
                </g>
            </g>
        </g>
    </g>
</svg>
