<svg xmlns="http://www.w3.org/2000/svg" width="24" height="24" viewBox="0 0 24 24">
    <defs>
        <clipPath id="fx638th5ka">
            <path data-name="사각형 13521" style="fill:none" d="M0 0h24v24H0z"/>
        </clipPath>
    </defs>
    <path data-name="사각형 13519" style="fill:none" d="M0 0h24v24H0z"/>
    <g data-name="그룹 11570">
        <g data-name="그룹 11569" style="clip-path:url(#fx638th5ka)">
            <path data-name="합치기 3" d="M723.424-224.6a1.408 1.408 0 0 1-.4-1.279l1.215-6.3a1.433 1.433 0 0 1 .378-.721l12.456-12.681a1.423 1.423 0 0 1 1.984-.031l5.112 4.925a1.422 1.422 0 0 1 .433 1 1.416 1.416 0 0 1-.407 1.009L731.741-226a1.4 1.4 0 0 1-.714.391l-6.316 1.377a1.383 1.383 0 0 1-.3.033 1.406 1.406 0 0 1-.987-.401zm2.467-7.17-1.118 5.792 5.818-1.269 8.081-8.225-4.7-4.525zm13.97-4.913 2.925-2.977-4.7-4.526-2.925 2.978zm3.132-2.777z" transform="translate(-721.283 246.769)" style="fill:#fff;stroke:transparent;stroke-miterlimit:10"/>
        </g>
    </g>
</svg>
